<mxfile host="app.diagrams.net" agent="Mozilla/5.0 (Windows NT 10.0; Win64; x64; rv:144.0) Gecko/20100101 Firefox/144.0" version="28.2.8" pages="2">
  <diagram name="第 1 页" id="EsDyi2yGmoQFUMC8awGL">
    <mxGraphModel dx="1226" dy="629" grid="1" gridSize="10" guides="1" tooltips="1" connect="1" arrows="1" fold="1" page="1" pageScale="1" pageWidth="827" pageHeight="1169" math="0" shadow="0">
      <root>
        <mxCell id="0" />
        <mxCell id="1" parent="0" />
        <mxCell id="eAFNvK6B1Yh4gOjyT6wa-1" value="管理员" style="ellipse;whiteSpace=wrap;html=1;" vertex="1" parent="1">
          <mxGeometry x="50" y="100" width="120" height="80" as="geometry" />
        </mxCell>
        <mxCell id="eAFNvK6B1Yh4gOjyT6wa-2" value="游客" style="ellipse;whiteSpace=wrap;html=1;" vertex="1" parent="1">
          <mxGeometry x="50" y="280" width="120" height="80" as="geometry" />
        </mxCell>
        <mxCell id="eAFNvK6B1Yh4gOjyT6wa-3" value="商家" style="ellipse;whiteSpace=wrap;html=1;" vertex="1" parent="1">
          <mxGeometry x="60" y="480" width="120" height="80" as="geometry" />
        </mxCell>
        <mxCell id="uo2DmePZ6HQWs9kpn8J2-1" value="游客管理" style="rounded=0;whiteSpace=wrap;html=1;" vertex="1" parent="1">
          <mxGeometry x="280" y="80" width="100" height="40" as="geometry" />
        </mxCell>
        <mxCell id="uo2DmePZ6HQWs9kpn8J2-2" value="商家管理" style="rounded=0;whiteSpace=wrap;html=1;" vertex="1" parent="1">
          <mxGeometry x="280" y="140" width="100" height="40" as="geometry" />
        </mxCell>
        <mxCell id="uo2DmePZ6HQWs9kpn8J2-3" value="旅游地点浏览" style="rounded=0;whiteSpace=wrap;html=1;" vertex="1" parent="1">
          <mxGeometry x="280" y="230" width="100" height="40" as="geometry" />
        </mxCell>
        <mxCell id="uo2DmePZ6HQWs9kpn8J2-4" value="预约" style="rounded=0;whiteSpace=wrap;html=1;" vertex="1" parent="1">
          <mxGeometry x="280" y="280" width="100" height="40" as="geometry" />
        </mxCell>
        <mxCell id="uo2DmePZ6HQWs9kpn8J2-5" value="评价与分享" style="rounded=0;whiteSpace=wrap;html=1;" vertex="1" parent="1">
          <mxGeometry x="280" y="330" width="100" height="40" as="geometry" />
        </mxCell>
        <mxCell id="uo2DmePZ6HQWs9kpn8J2-6" value="申请入驻" style="rounded=0;whiteSpace=wrap;html=1;" vertex="1" parent="1">
          <mxGeometry x="280" y="470" width="100" height="40" as="geometry" />
        </mxCell>
        <mxCell id="uo2DmePZ6HQWs9kpn8J2-7" value="管理商品" style="rounded=0;whiteSpace=wrap;html=1;" vertex="1" parent="1">
          <mxGeometry x="280" y="545" width="100" height="40" as="geometry" />
        </mxCell>
        <mxCell id="uo2DmePZ6HQWs9kpn8J2-8" value="" style="endArrow=classic;html=1;rounded=0;exitX=1;exitY=0.5;exitDx=0;exitDy=0;entryX=0;entryY=0.5;entryDx=0;entryDy=0;" edge="1" parent="1" source="eAFNvK6B1Yh4gOjyT6wa-1" target="uo2DmePZ6HQWs9kpn8J2-1">
          <mxGeometry width="50" height="50" relative="1" as="geometry">
            <mxPoint x="200" y="160" as="sourcePoint" />
            <mxPoint x="250" y="110" as="targetPoint" />
          </mxGeometry>
        </mxCell>
        <mxCell id="uo2DmePZ6HQWs9kpn8J2-9" value="" style="endArrow=classic;html=1;rounded=0;entryX=0;entryY=0.75;entryDx=0;entryDy=0;" edge="1" parent="1" source="eAFNvK6B1Yh4gOjyT6wa-1" target="uo2DmePZ6HQWs9kpn8J2-2">
          <mxGeometry width="50" height="50" relative="1" as="geometry">
            <mxPoint x="170" y="260" as="sourcePoint" />
            <mxPoint x="220" y="210" as="targetPoint" />
          </mxGeometry>
        </mxCell>
        <mxCell id="uo2DmePZ6HQWs9kpn8J2-10" value="" style="endArrow=classic;html=1;rounded=0;entryX=0;entryY=0.5;entryDx=0;entryDy=0;exitX=1;exitY=0.5;exitDx=0;exitDy=0;" edge="1" parent="1" source="eAFNvK6B1Yh4gOjyT6wa-2" target="uo2DmePZ6HQWs9kpn8J2-4">
          <mxGeometry width="50" height="50" relative="1" as="geometry">
            <mxPoint x="250" y="380" as="sourcePoint" />
            <mxPoint x="362" y="400" as="targetPoint" />
          </mxGeometry>
        </mxCell>
        <mxCell id="uo2DmePZ6HQWs9kpn8J2-11" value="" style="endArrow=classic;html=1;rounded=0;entryX=0;entryY=0.5;entryDx=0;entryDy=0;exitX=0.667;exitY=1.008;exitDx=0;exitDy=0;exitPerimeter=0;" edge="1" parent="1" source="eAFNvK6B1Yh4gOjyT6wa-2" target="uo2DmePZ6HQWs9kpn8J2-5">
          <mxGeometry width="50" height="50" relative="1" as="geometry">
            <mxPoint x="180" y="390" as="sourcePoint" />
            <mxPoint x="292" y="410" as="targetPoint" />
          </mxGeometry>
        </mxCell>
        <mxCell id="uo2DmePZ6HQWs9kpn8J2-12" value="" style="endArrow=classic;html=1;rounded=0;exitX=0.947;exitY=0.247;exitDx=0;exitDy=0;entryX=0;entryY=0.5;entryDx=0;entryDy=0;exitPerimeter=0;" edge="1" parent="1" source="eAFNvK6B1Yh4gOjyT6wa-2" target="uo2DmePZ6HQWs9kpn8J2-3">
          <mxGeometry width="50" height="50" relative="1" as="geometry">
            <mxPoint x="170" y="290" as="sourcePoint" />
            <mxPoint x="280" y="250" as="targetPoint" />
          </mxGeometry>
        </mxCell>
        <mxCell id="uo2DmePZ6HQWs9kpn8J2-13" value="" style="endArrow=classic;html=1;rounded=0;entryX=0;entryY=0.5;entryDx=0;entryDy=0;" edge="1" parent="1" target="uo2DmePZ6HQWs9kpn8J2-6">
          <mxGeometry width="50" height="50" relative="1" as="geometry">
            <mxPoint x="169" y="501" as="sourcePoint" />
            <mxPoint x="320" y="480" as="targetPoint" />
          </mxGeometry>
        </mxCell>
        <mxCell id="uo2DmePZ6HQWs9kpn8J2-14" value="" style="endArrow=classic;html=1;rounded=0;entryX=0;entryY=0.5;entryDx=0;entryDy=0;exitX=0.963;exitY=0.697;exitDx=0;exitDy=0;exitPerimeter=0;" edge="1" parent="1" source="eAFNvK6B1Yh4gOjyT6wa-3" target="uo2DmePZ6HQWs9kpn8J2-7">
          <mxGeometry width="50" height="50" relative="1" as="geometry">
            <mxPoint x="210" y="551" as="sourcePoint" />
            <mxPoint x="322" y="550" as="targetPoint" />
          </mxGeometry>
        </mxCell>
        <mxCell id="uo2DmePZ6HQWs9kpn8J2-19" value="" style="edgeStyle=orthogonalEdgeStyle;rounded=0;orthogonalLoop=1;jettySize=auto;html=1;" edge="1" parent="1" source="uo2DmePZ6HQWs9kpn8J2-16" target="eAFNvK6B1Yh4gOjyT6wa-1">
          <mxGeometry relative="1" as="geometry" />
        </mxCell>
        <mxCell id="uo2DmePZ6HQWs9kpn8J2-52" value="通过管理员审核后" style="edgeLabel;html=1;align=center;verticalAlign=middle;resizable=0;points=[];" vertex="1" connectable="0" parent="uo2DmePZ6HQWs9kpn8J2-19">
          <mxGeometry x="0.5035" y="2" relative="1" as="geometry">
            <mxPoint as="offset" />
          </mxGeometry>
        </mxCell>
        <mxCell id="uo2DmePZ6HQWs9kpn8J2-16" value="成为商家" style="rounded=0;whiteSpace=wrap;html=1;" vertex="1" parent="1">
          <mxGeometry x="60" y="210" width="100" height="40" as="geometry" />
        </mxCell>
        <mxCell id="uo2DmePZ6HQWs9kpn8J2-17" value="" style="endArrow=classic;html=1;rounded=0;entryX=0.5;entryY=1;entryDx=0;entryDy=0;exitX=0.5;exitY=0;exitDx=0;exitDy=0;" edge="1" parent="1" source="eAFNvK6B1Yh4gOjyT6wa-2" target="uo2DmePZ6HQWs9kpn8J2-16">
          <mxGeometry width="50" height="50" relative="1" as="geometry">
            <mxPoint x="-10" y="320" as="sourcePoint" />
            <mxPoint x="40" y="270" as="targetPoint" />
          </mxGeometry>
        </mxCell>
        <mxCell id="uo2DmePZ6HQWs9kpn8J2-20" value="" style="endArrow=classic;html=1;rounded=0;exitX=1;exitY=0.5;exitDx=0;exitDy=0;entryX=0;entryY=0.5;entryDx=0;entryDy=0;" edge="1" parent="1" source="uo2DmePZ6HQWs9kpn8J2-2" target="uo2DmePZ6HQWs9kpn8J2-21">
          <mxGeometry width="50" height="50" relative="1" as="geometry">
            <mxPoint x="440" y="200" as="sourcePoint" />
            <mxPoint x="440" y="160" as="targetPoint" />
          </mxGeometry>
        </mxCell>
        <mxCell id="uo2DmePZ6HQWs9kpn8J2-21" value="审核" style="rounded=0;whiteSpace=wrap;html=1;" vertex="1" parent="1">
          <mxGeometry x="440" y="140" width="100" height="40" as="geometry" />
        </mxCell>
        <mxCell id="uo2DmePZ6HQWs9kpn8J2-22" value="景点观看" style="rounded=0;whiteSpace=wrap;html=1;" vertex="1" parent="1">
          <mxGeometry x="450" y="220" width="80" height="30" as="geometry" />
        </mxCell>
        <mxCell id="uo2DmePZ6HQWs9kpn8J2-48" style="edgeStyle=orthogonalEdgeStyle;rounded=0;orthogonalLoop=1;jettySize=auto;html=1;exitX=1;exitY=0;exitDx=0;exitDy=0;entryX=0;entryY=0.75;entryDx=0;entryDy=0;" edge="1" parent="1" source="uo2DmePZ6HQWs9kpn8J2-23" target="uo2DmePZ6HQWs9kpn8J2-44">
          <mxGeometry relative="1" as="geometry">
            <mxPoint x="670.4705882352941" y="150" as="targetPoint" />
          </mxGeometry>
        </mxCell>
        <mxCell id="uo2DmePZ6HQWs9kpn8J2-49" style="edgeStyle=orthogonalEdgeStyle;rounded=0;orthogonalLoop=1;jettySize=auto;html=1;exitX=1;exitY=0;exitDx=0;exitDy=0;entryX=0;entryY=0.25;entryDx=0;entryDy=0;" edge="1" parent="1" source="uo2DmePZ6HQWs9kpn8J2-23" target="uo2DmePZ6HQWs9kpn8J2-45">
          <mxGeometry relative="1" as="geometry" />
        </mxCell>
        <mxCell id="uo2DmePZ6HQWs9kpn8J2-50" style="edgeStyle=orthogonalEdgeStyle;rounded=0;orthogonalLoop=1;jettySize=auto;html=1;entryX=0;entryY=0.75;entryDx=0;entryDy=0;" edge="1" parent="1" source="uo2DmePZ6HQWs9kpn8J2-23" target="uo2DmePZ6HQWs9kpn8J2-46">
          <mxGeometry relative="1" as="geometry" />
        </mxCell>
        <mxCell id="uo2DmePZ6HQWs9kpn8J2-51" style="edgeStyle=orthogonalEdgeStyle;rounded=0;orthogonalLoop=1;jettySize=auto;html=1;entryX=0;entryY=0.75;entryDx=0;entryDy=0;" edge="1" parent="1" source="uo2DmePZ6HQWs9kpn8J2-23" target="uo2DmePZ6HQWs9kpn8J2-47">
          <mxGeometry relative="1" as="geometry" />
        </mxCell>
        <mxCell id="uo2DmePZ6HQWs9kpn8J2-23" value="详情页面查看" style="rounded=0;whiteSpace=wrap;html=1;" vertex="1" parent="1">
          <mxGeometry x="590" y="215" width="70" height="35" as="geometry" />
        </mxCell>
        <mxCell id="uo2DmePZ6HQWs9kpn8J2-24" value="" style="endArrow=classic;html=1;rounded=0;exitX=1;exitY=0.5;exitDx=0;exitDy=0;entryX=0;entryY=0.75;entryDx=0;entryDy=0;" edge="1" parent="1" source="uo2DmePZ6HQWs9kpn8J2-3" target="uo2DmePZ6HQWs9kpn8J2-22">
          <mxGeometry width="50" height="50" relative="1" as="geometry">
            <mxPoint x="430" y="340" as="sourcePoint" />
            <mxPoint x="480" y="290" as="targetPoint" />
          </mxGeometry>
        </mxCell>
        <mxCell id="uo2DmePZ6HQWs9kpn8J2-27" value="生成二维码" style="rounded=0;whiteSpace=wrap;html=1;" vertex="1" parent="1">
          <mxGeometry x="460" y="285" width="80" height="30" as="geometry" />
        </mxCell>
        <mxCell id="uo2DmePZ6HQWs9kpn8J2-28" value="" style="endArrow=classic;html=1;rounded=0;exitX=1;exitY=0.5;exitDx=0;exitDy=0;entryX=0;entryY=0.5;entryDx=0;entryDy=0;" edge="1" parent="1" source="uo2DmePZ6HQWs9kpn8J2-4" target="uo2DmePZ6HQWs9kpn8J2-27">
          <mxGeometry width="50" height="50" relative="1" as="geometry">
            <mxPoint x="400" y="460" as="sourcePoint" />
            <mxPoint x="450" y="410" as="targetPoint" />
          </mxGeometry>
        </mxCell>
        <mxCell id="uo2DmePZ6HQWs9kpn8J2-30" value="" style="endArrow=open;endFill=1;endSize=12;html=1;rounded=0;exitX=0.43;exitY=1.047;exitDx=0;exitDy=0;exitPerimeter=0;entryX=0.75;entryY=1;entryDx=0;entryDy=0;" edge="1" parent="1" source="eAFNvK6B1Yh4gOjyT6wa-3" target="uo2DmePZ6HQWs9kpn8J2-27">
          <mxGeometry width="160" relative="1" as="geometry">
            <mxPoint x="210" y="640" as="sourcePoint" />
            <mxPoint x="490" y="410" as="targetPoint" />
            <Array as="points">
              <mxPoint x="112" y="690" />
              <mxPoint x="810" y="690" />
              <mxPoint x="800" y="320" />
            </Array>
          </mxGeometry>
        </mxCell>
        <mxCell id="uo2DmePZ6HQWs9kpn8J2-31" value="查看，审核" style="edgeLabel;html=1;align=center;verticalAlign=middle;resizable=0;points=[];" vertex="1" connectable="0" parent="uo2DmePZ6HQWs9kpn8J2-30">
          <mxGeometry x="-0.8609" y="1" relative="1" as="geometry">
            <mxPoint as="offset" />
          </mxGeometry>
        </mxCell>
        <mxCell id="uo2DmePZ6HQWs9kpn8J2-32" value="评价景点" style="rounded=0;whiteSpace=wrap;html=1;" vertex="1" parent="1">
          <mxGeometry x="450" y="335" width="80" height="30" as="geometry" />
        </mxCell>
        <mxCell id="uo2DmePZ6HQWs9kpn8J2-33" value="评价商家" style="rounded=0;whiteSpace=wrap;html=1;" vertex="1" parent="1">
          <mxGeometry x="450" y="380" width="80" height="30" as="geometry" />
        </mxCell>
        <mxCell id="uo2DmePZ6HQWs9kpn8J2-34" value="直接复制链接分享给好友" style="rounded=0;whiteSpace=wrap;html=1;" vertex="1" parent="1">
          <mxGeometry x="450" y="430" width="80" height="30" as="geometry" />
        </mxCell>
        <mxCell id="uo2DmePZ6HQWs9kpn8J2-35" value="评价后复制链接分享到各大社交平台" style="rounded=0;whiteSpace=wrap;html=1;" vertex="1" parent="1">
          <mxGeometry x="640" y="360" width="90" height="50" as="geometry" />
        </mxCell>
        <mxCell id="uo2DmePZ6HQWs9kpn8J2-36" value="" style="endArrow=classic;html=1;rounded=0;exitX=1;exitY=0.5;exitDx=0;exitDy=0;entryX=0;entryY=0.5;entryDx=0;entryDy=0;" edge="1" parent="1" source="uo2DmePZ6HQWs9kpn8J2-5" target="uo2DmePZ6HQWs9kpn8J2-32">
          <mxGeometry width="50" height="50" relative="1" as="geometry">
            <mxPoint x="370" y="430" as="sourcePoint" />
            <mxPoint x="420" y="380" as="targetPoint" />
          </mxGeometry>
        </mxCell>
        <mxCell id="uo2DmePZ6HQWs9kpn8J2-38" value="" style="endArrow=classic;html=1;rounded=0;exitX=1;exitY=1;exitDx=0;exitDy=0;entryX=0;entryY=0.5;entryDx=0;entryDy=0;" edge="1" parent="1" source="uo2DmePZ6HQWs9kpn8J2-5">
          <mxGeometry width="50" height="50" relative="1" as="geometry">
            <mxPoint x="380" y="390" as="sourcePoint" />
            <mxPoint x="450" y="390" as="targetPoint" />
          </mxGeometry>
        </mxCell>
        <mxCell id="uo2DmePZ6HQWs9kpn8J2-39" value="" style="endArrow=classic;html=1;rounded=0;exitX=0.667;exitY=1.049;exitDx=0;exitDy=0;entryX=0;entryY=0.5;entryDx=0;entryDy=0;exitPerimeter=0;" edge="1" parent="1" source="uo2DmePZ6HQWs9kpn8J2-5" target="uo2DmePZ6HQWs9kpn8J2-34">
          <mxGeometry width="50" height="50" relative="1" as="geometry">
            <mxPoint x="370" y="410" as="sourcePoint" />
            <mxPoint x="440" y="410" as="targetPoint" />
          </mxGeometry>
        </mxCell>
        <mxCell id="uo2DmePZ6HQWs9kpn8J2-41" value="" style="endArrow=classic;html=1;rounded=0;exitX=1;exitY=0.5;exitDx=0;exitDy=0;entryX=0;entryY=0.25;entryDx=0;entryDy=0;" edge="1" parent="1" source="uo2DmePZ6HQWs9kpn8J2-32" target="uo2DmePZ6HQWs9kpn8J2-35">
          <mxGeometry width="50" height="50" relative="1" as="geometry">
            <mxPoint x="560" y="350" as="sourcePoint" />
            <mxPoint x="630" y="350" as="targetPoint" />
          </mxGeometry>
        </mxCell>
        <mxCell id="uo2DmePZ6HQWs9kpn8J2-42" value="" style="endArrow=classic;html=1;rounded=0;exitX=1;exitY=0.5;exitDx=0;exitDy=0;entryX=0;entryY=0.75;entryDx=0;entryDy=0;" edge="1" parent="1" source="uo2DmePZ6HQWs9kpn8J2-33" target="uo2DmePZ6HQWs9kpn8J2-35">
          <mxGeometry width="50" height="50" relative="1" as="geometry">
            <mxPoint x="550" y="400" as="sourcePoint" />
            <mxPoint x="620" y="400" as="targetPoint" />
          </mxGeometry>
        </mxCell>
        <mxCell id="uo2DmePZ6HQWs9kpn8J2-43" value="" style="endArrow=classic;html=1;rounded=0;exitX=1;exitY=0.75;exitDx=0;exitDy=0;entryX=0;entryY=0.75;entryDx=0;entryDy=0;" edge="1" parent="1" source="uo2DmePZ6HQWs9kpn8J2-22" target="uo2DmePZ6HQWs9kpn8J2-23">
          <mxGeometry width="50" height="50" relative="1" as="geometry">
            <mxPoint x="530" y="280" as="sourcePoint" />
            <mxPoint x="580" y="230" as="targetPoint" />
          </mxGeometry>
        </mxCell>
        <mxCell id="uo2DmePZ6HQWs9kpn8J2-44" value="是否付费" style="rounded=0;whiteSpace=wrap;html=1;" vertex="1" parent="1">
          <mxGeometry x="740" y="90" width="80" height="30" as="geometry" />
        </mxCell>
        <mxCell id="uo2DmePZ6HQWs9kpn8J2-45" value="是否需要预约" style="rounded=0;whiteSpace=wrap;html=1;" vertex="1" parent="1">
          <mxGeometry x="740" y="150" width="80" height="30" as="geometry" />
        </mxCell>
        <mxCell id="uo2DmePZ6HQWs9kpn8J2-46" value="好评率" style="rounded=0;whiteSpace=wrap;html=1;" vertex="1" parent="1">
          <mxGeometry x="747" y="200" width="80" height="30" as="geometry" />
        </mxCell>
        <mxCell id="uo2DmePZ6HQWs9kpn8J2-47" value="景点类型" style="rounded=0;whiteSpace=wrap;html=1;" vertex="1" parent="1">
          <mxGeometry x="747" y="250" width="80" height="30" as="geometry" />
        </mxCell>
        <mxCell id="uo2DmePZ6HQWs9kpn8J2-53" value="上架，下架" style="rounded=0;whiteSpace=wrap;html=1;" vertex="1" parent="1">
          <mxGeometry x="460" y="545" width="100" height="40" as="geometry" />
        </mxCell>
        <mxCell id="uo2DmePZ6HQWs9kpn8J2-54" value="" style="endArrow=classic;html=1;rounded=0;exitX=1;exitY=0.5;exitDx=0;exitDy=0;entryX=0;entryY=0.5;entryDx=0;entryDy=0;" edge="1" parent="1" source="uo2DmePZ6HQWs9kpn8J2-7" target="uo2DmePZ6HQWs9kpn8J2-53">
          <mxGeometry width="50" height="50" relative="1" as="geometry">
            <mxPoint x="400" y="660" as="sourcePoint" />
            <mxPoint x="450" y="610" as="targetPoint" />
          </mxGeometry>
        </mxCell>
      </root>
    </mxGraphModel>
  </diagram>
  <diagram id="zDbF8anIJJSiFji54X04" name="第 2 页">
    <mxGraphModel dx="1042" dy="535" grid="1" gridSize="10" guides="1" tooltips="1" connect="1" arrows="1" fold="1" page="1" pageScale="1" pageWidth="827" pageHeight="1169" math="0" shadow="0">
      <root>
        <mxCell id="0" />
        <mxCell id="1" parent="0" />
      </root>
    </mxGraphModel>
  </diagram>
</mxfile>
